<svg width="56" height="60" viewBox="0 0 56 60" fill="none" xmlns="http://www.w3.org/2000/svg">
<path d="M45.5 5.625H15.75C13.8935 5.625 12.113 6.41518 10.8003 7.8217C9.4875 9.22822 8.75 11.1359 8.75 13.125V52.5C8.75 52.9973 8.93437 53.4742 9.26256 53.8258C9.59075 54.1775 10.0359 54.375 10.5 54.375H42C42.4641 54.375 42.9092 54.1775 43.2374 53.8258C43.5656 53.4742 43.75 52.9973 43.75 52.5C43.75 52.0027 43.5656 51.5258 43.2374 51.1742C42.9092 50.8225 42.4641 50.625 42 50.625H12.25C12.25 49.6304 12.6187 48.6766 13.2751 47.9734C13.9315 47.2701 14.8217 46.875 15.75 46.875H45.5C45.9641 46.875 46.4092 46.6775 46.7374 46.3258C47.0656 45.9742 47.25 45.4973 47.25 45V7.5C47.25 7.00272 47.0656 6.52581 46.7374 6.17417C46.4092 5.82254 45.9641 5.625 45.5 5.625ZM43.75 43.125H15.75C14.5209 43.123 13.3133 43.4699 12.25 44.1305V13.125C12.25 12.1304 12.6187 11.1766 13.2751 10.4733C13.9315 9.77009 14.8217 9.375 15.75 9.375H43.75V43.125Z" fill="black"/>
</svg>
